<svg xmlns="http://www.w3.org/2000/svg" width="40" height="40" viewBox="0 0 40 40">
    <path fill="#ABABAB" fill-rule="nonzero" d="M18 0c-1.096 0-2 .904-2 2v2.62a15.92 15.92 0 0 0-4.053 1.667L10.24 4.58a2.017 2.017 0 0 0-2.83 0L4.582 7.41a2.01 2.01 0 0 0 0 2.83l1.709 1.71A15.873 15.873 0 0 0 4.608 16H2c-1.096 0-2 .904-2 2v4c0 1.096.904 2 2 2h2.62a15.92 15.92 0 0 0 1.667 4.053L4.58 29.76a2.017 2.017 0 0 0 0 2.83l2.83 2.827a2.01 2.01 0 0 0 2.83 0l1.71-1.709A15.873 15.873 0 0 0 16 35.392V38c0 1.096.904 2 2 2h4c1.096 0 2-.904 2-2v-2.62a15.92 15.92 0 0 0 4.053-1.667l1.707 1.707a2.017 2.017 0 0 0 2.83 0l2.827-2.83a2.01 2.01 0 0 0 0-2.83l-1.709-1.71A15.873 15.873 0 0 0 35.392 24H38c1.096 0 2-.904 2-2v-4c0-1.096-.904-2-2-2h-2.62a15.92 15.92 0 0 0-1.667-4.053l1.707-1.707a2.017 2.017 0 0 0 0-2.83l-2.83-2.827a2.01 2.01 0 0 0-2.83 0l-1.71 1.709A15.873 15.873 0 0 0 24 4.608V2c0-1.096-.904-2-2-2h-4zm0 1.333h4a.65.65 0 0 1 .667.667v3.044c0 .312.216.582.52.65a14.694 14.694 0 0 1 4.67 1.94.667.667 0 0 0 .827-.093l2.019-2.016c.269-.269.677-.269.946 0l2.827 2.827c.27.27.27.677 0 .947l-2.01 2.008a.667.667 0 0 0-.093.829 14.616 14.616 0 0 1 1.92 4.673c.068.307.34.525.654.524H38a.65.65 0 0 1 .667.667v4a.65.65 0 0 1-.667.667h-3.044a.667.667 0 0 0-.65.52 14.694 14.694 0 0 1-1.94 4.67.667.667 0 0 0 .093.827l2.016 2.019c.269.269.269.677 0 .946l-2.827 2.827a.656.656 0 0 1-.947 0l-2.008-2.01a.667.667 0 0 0-.829-.093 14.616 14.616 0 0 1-4.673 1.92.667.667 0 0 0-.524.654V38a.65.65 0 0 1-.667.667h-4a.65.65 0 0 1-.667-.667v-3.044a.667.667 0 0 0-.52-.65 14.694 14.694 0 0 1-4.67-1.94.667.667 0 0 0-.827.093l-2.019 2.016a.656.656 0 0 1-.946 0l-2.827-2.827a.656.656 0 0 1 0-.947l2.01-2.008a.667.667 0 0 0 .093-.829 14.616 14.616 0 0 1-1.92-4.673.667.667 0 0 0-.654-.524H2A.65.65 0 0 1 1.333 22v-4A.65.65 0 0 1 2 17.333h3.044a.667.667 0 0 0 .65-.52 14.694 14.694 0 0 1 1.94-4.67.667.667 0 0 0-.093-.827l-2.016-2.02a.656.656 0 0 1 0-.947l2.827-2.826c.27-.27.677-.27.947 0l2.008 2.01c.22.222.565.26.829.094a14.616 14.616 0 0 1 4.673-1.92.667.667 0 0 0 .524-.654V2A.65.65 0 0 1 18 1.333zm2 12A6.676 6.676 0 0 0 13.333 20 6.676 6.676 0 0 0 20 26.667 6.676 6.676 0 0 0 26.667 20 6.676 6.676 0 0 0 20 13.333zm0 1.334A5.323 5.323 0 0 1 25.333 20 5.323 5.323 0 0 1 20 25.333 5.323 5.323 0 0 1 14.667 20 5.323 5.323 0 0 1 20 14.667z"/>
</svg>
