<svg xmlns="http://www.w3.org/2000/svg" width="229" height="222" viewBox="0 0 229 222">
    <path fill="#D5D5D5" fill-rule="nonzero" d="M80.236 125.652c-.991.03-1.93.429-2.624 1.109L5.016 196.993c-6.836 6.6-5.92 15.773-.802 20.77 5.112 4.981 14.595 5.876 21.438-.762l72.398-70.143c3.753-3.489-1.907-8.737-5.386-5.233l-72.398 70.143c-4.425 4.287-8.163 3.178-10.65.769-2.487-2.425-3.586-6.105.778-10.326l72.604-70.24c2.487-2.35.64-6.334-2.77-6.334l.008.015zM144.701 15.3c-12.237 1.574-24 6.726-33.491 15.248-3.738 3.348 1.602 8.648 5.187 5.425 16.631-14.93 41.135-18.071 61.2-7.834 4.424 2.454 8.033-4.457 3.547-6.542-11.443-5.839-24.184-7.864-36.436-6.297h-.007zM152.71 0c-42.089 0-76.289 33.135-76.289 73.913s34.2 73.913 76.289 73.913S229 114.691 229 73.913 194.8 0 152.711 0zm0 7.391c37.961 0 68.66 29.743 68.66 66.522 0 36.78-30.699 66.522-68.66 66.522s-68.66-29.743-68.66-66.522c0-36.78 30.699-66.522 68.66-66.522z"/>
</svg>
