<svg xmlns="http://www.w3.org/2000/svg" xmlns:xlink="http://www.w3.org/1999/xlink" width="42" height="42" viewBox="0 0 42 42">
    <defs>
        <path id="a" d="M19.824 0c-.716 0-1.078.78-.563 1.23l5.814 5.258-5.814 5.258c-.784.679.376 1.726 1.128 1.018l6.377-5.767a.671.671 0 0 0 0-1.019L20.389.21A.827.827 0 0 0 19.824 0zm.676 6C9.187 6 0 14.515 0 25s9.187 19 20.5 19S41 35.485 41 25v-.73c0-.955-1.577-.977-1.577 0V25c0 9.694-8.463 17.538-18.923 17.538-10.46 0-18.923-7.844-18.923-17.538 0-9.694 8.463-17.538 18.923-17.538h.788c1.025 0 1.062-1.462 0-1.462H20.5z"/>
    </defs>
    <g fill="none" fill-rule="nonzero" transform="rotate(62 23.664 22.664)">
        <use fill="#ABABAB" fill-rule="evenodd" xlink:href="#a"/>
        <path stroke="#ABABAB" d="M19.824.5c.096 0 .173.028.228.079l6.379 5.77c.092.084.092.193 0 .277l-6.377 5.767c-.153.144-.332.135-.47.01-.11-.099-.115-.176.004-.28L25.41 6.86l.41-.37-6.223-5.63C19.442.726 19.546.5 19.824.5zm.676 6C9.455 6.5.5 14.8.5 25s8.955 18.5 20 18.5 20-8.3 20-18.5v-.73c0-.138-.104-.223-.292-.225-.186-.001-.285.08-.285.224V25c0 9.98-8.695 18.038-19.423 18.038C9.772 43.038 1.077 34.98 1.077 25c0-9.98 8.695-18.038 19.423-18.038h.788c.19 0 .281-.095.283-.237.002-.139-.08-.225-.283-.225H20.5z"/>
    </g>
</svg>
